<?xml version="1.0" standalone="no"?>
<!DOCTYPE svg PUBLIC "-//W3C//DTD SVG 20010904//EN"
 "http://www.w3.org/TR/2001/REC-SVG-20010904/DTD/svg10.dtd">
<svg version="1.0" xmlns="http://www.w3.org/2000/svg"
 width="2269.000000pt" height="2269.000000pt" viewBox="0 0 2269.000000 2269.000000"
 preserveAspectRatio="xMidYMid meet">
<metadata>
Created by potrace 1.14, written by Peter Selinger 2001-2017
</metadata>
<g transform="translate(0.000000,2269.000000) scale(0.100000,-0.100000)"
fill="#000000" stroke="none">
<path d="M11869 22053 c-13 -16 -12 -17 4 -4 9 7 17 15 17 17 0 8 -8 3 -21
-13z"/>
<path d="M10660 22056 c0 -2 8 -10 18 -17 15 -13 16 -12 3 4 -13 16 -21 21
-21 13z"/>
<path d="M12730 22051 c0 -6 4 -13 10 -16 6 -3 7 1 4 9 -7 18 -14 21 -14 7z"/>
<path d="M12790 22011 c0 -6 4 -12 8 -15 5 -3 9 1 9 9 0 8 -4 15 -9 15 -4 0
-8 -4 -8 -9z"/>
<path d="M12435 21981 c-3 -5 -2 -12 3 -15 5 -3 9 1 9 9 0 17 -3 19 -12 6z"/>
<path d="M9715 21970 c3 -5 8 -10 11 -10 2 0 4 5 4 10 0 6 -5 10 -11 10 -5 0
-7 -4 -4 -10z"/>
<path d="M11176 21972 c-3 -4 -49 -9 -103 -11 -54 -2 -120 -4 -148 -6 -114 -7
-226 -15 -262 -20 -21 -2 -72 -7 -113 -10 -86 -6 -144 -11 -215 -21 -27 -3
-69 -7 -92 -9 -24 -1 -46 -5 -50 -8 -3 -4 -13 -1 -21 6 -13 9 -14 9 -8 0 5 -9
-2 -13 -26 -14 -18 0 -42 -2 -53 -5 -11 -2 -48 -5 -81 -7 -34 -1 -60 -5 -57
-9 2 -5 -6 -8 -19 -9 -13 0 -32 -2 -43 -5 -11 -2 -39 -6 -63 -8 -23 -3 -47 -8
-53 -11 -5 -4 -17 -1 -26 7 -10 7 -14 8 -10 1 8 -12 -49 -30 -60 -19 -4 3 -11
2 -17 -3 -6 -5 -31 -11 -56 -14 -25 -2 -52 -7 -60 -9 -34 -12 -193 -38 -201
-32 -5 3 -9 1 -9 -3 0 -15 -88 -31 -101 -19 -9 8 -10 7 -4 -3 6 -11 2 -13 -18
-9 -15 3 -24 1 -21 -3 3 -5 -5 -9 -18 -9 -13 -1 -40 -7 -60 -14 -21 -8 -38
-10 -38 -6 0 5 -14 2 -30 -7 -17 -8 -37 -12 -45 -9 -7 2 -15 0 -17 -5 -2 -6
-20 -11 -41 -12 -20 -1 -37 -6 -37 -11 0 -5 -3 -6 -6 -3 -4 3 -14 2 -23 -2
-16 -9 -67 -21 -107 -25 -11 -1 -25 -6 -32 -10 -7 -4 -20 -9 -29 -11 -10 -3
-49 -13 -88 -24 -38 -11 -72 -18 -76 -15 -4 2 -9 0 -11 -5 -1 -5 -18 -11 -36
-14 -18 -3 -38 -9 -45 -14 -7 -5 -19 -9 -27 -8 -8 1 -27 -5 -42 -12 -16 -7
-28 -11 -28 -7 0 4 -6 2 -13 -4 -7 -6 -26 -12 -42 -14 -17 -2 -32 -5 -35 -8
-10 -10 -255 -91 -282 -93 -14 -1 -24 -6 -20 -11 3 -5 -2 -7 -11 -3 -10 3 -17
2 -17 -3 0 -6 -8 -10 -18 -10 -10 0 -22 -3 -26 -7 -4 -5 -12 -9 -17 -9 -5 -1
-11 -3 -14 -4 -3 -1 -8 -3 -12 -4 -12 -3 -65 -26 -95 -41 -20 -10 -29 -10 -38
-1 -10 8 -11 8 -6 -1 7 -13 -51 -36 -67 -26 -6 3 -7 1 -3 -5 4 -7 1 -12 -7
-12 -13 0 -81 -26 -132 -51 -11 -5 -30 -11 -43 -12 -12 0 -22 -4 -22 -8 0 -15
-57 -28 -69 -16 -9 9 -11 8 -6 -4 5 -12 -2 -20 -24 -27 -17 -6 -31 -9 -31 -6
0 3 -7 -2 -16 -10 -8 -9 -27 -19 -42 -22 -15 -4 -49 -18 -77 -31 -27 -13 -56
-21 -63 -18 -7 2 -11 1 -8 -4 7 -11 -22 -23 -36 -14 -7 3 -8 1 -4 -5 6 -11 -6
-16 -26 -13 -5 0 -8 -3 -8 -7 0 -10 -98 -53 -116 -51 -4 0 -10 -5 -15 -12 -6
-10 -11 -10 -26 2 -16 13 -17 12 -5 -2 10 -14 10 -18 -4 -23 -9 -3 -21 -3 -26
1 -6 3 -8 2 -5 -4 8 -13 -41 -36 -55 -27 -6 4 -8 2 -5 -3 8 -12 -38 -27 -53
-18 -6 3 -8 0 -5 -7 3 -8 -24 -27 -74 -50 -43 -21 -83 -38 -89 -38 -6 0 -12
-3 -14 -7 -6 -16 -88 -54 -100 -47 -6 4 -8 3 -5 -3 5 -8 -30 -32 -53 -36 -3 0
-11 -7 -18 -14 -16 -16 -36 -17 -26 -1 5 7 3 8 -5 4 -7 -5 -10 -11 -7 -14 9
-9 -75 -53 -87 -45 -5 3 -7 1 -4 -4 8 -13 -20 -26 -35 -16 -7 3 -8 1 -4 -5 8
-14 -30 -36 -46 -26 -7 4 -8 3 -4 -4 9 -15 -28 -33 -51 -26 -14 5 -15 4 -4 -4
11 -8 4 -15 -30 -32 -24 -13 -56 -31 -71 -42 -16 -11 -28 -16 -28 -11 0 4 -4
3 -8 -2 -15 -23 -72 -56 -83 -49 -7 4 -10 3 -6 -2 6 -10 -211 -150 -230 -148
-7 1 -11 -3 -10 -10 1 -6 -6 -10 -15 -10 -10 1 -16 -1 -14 -5 3 -4 -52 -45
-122 -91 -70 -46 -130 -88 -133 -93 -4 -5 -13 -6 -20 -2 -8 5 -11 5 -7 0 6 -6
-11 -22 -77 -72 -6 -5 -18 -14 -28 -22 -14 -11 -20 -11 -34 0 -16 13 -17 12
-5 -3 11 -14 10 -18 -10 -29 -13 -7 -27 -12 -31 -11 -5 1 -6 -1 -3 -6 2 -4
-20 -26 -51 -47 -30 -22 -62 -46 -69 -53 -8 -7 -19 -10 -25 -6 -7 4 -9 3 -6
-3 4 -6 0 -16 -8 -23 -8 -7 -15 -9 -15 -5 0 5 -8 -1 -18 -11 -35 -39 -84 -74
-94 -68 -6 4 -8 2 -5 -3 4 -6 -5 -19 -20 -29 -14 -11 -54 -43 -89 -72 -37 -31
-69 -50 -76 -46 -6 4 -8 3 -5 -3 4 -6 -25 -37 -64 -69 -39 -33 -84 -71 -101
-86 -17 -15 -35 -25 -41 -21 -6 3 -7 1 -4 -4 4 -6 -12 -27 -36 -46 -23 -19
-62 -53 -86 -76 -24 -22 -48 -38 -53 -35 -5 3 -7 0 -6 -8 2 -7 -3 -12 -10 -10
-8 1 -11 -1 -8 -6 8 -13 -64 -73 -77 -65 -6 3 -7 1 -3 -5 4 -6 -12 -28 -36
-51 -24 -21 -90 -84 -146 -140 -57 -56 -108 -98 -113 -95 -5 3 -6 -1 -4 -8 6
-14 -43 -65 -58 -60 -4 1 -6 -1 -5 -5 5 -14 -110 -126 -121 -119 -6 4 -9 2 -6
-6 6 -14 -83 -115 -97 -110 -4 1 -7 -2 -6 -7 3 -8 -57 -79 -152 -182 -19 -21
-57 -65 -84 -98 -27 -33 -54 -57 -59 -54 -6 3 -8 2 -4 -3 7 -13 -19 -47 -31
-40 -5 3 -9 -2 -8 -12 0 -9 -5 -16 -12 -14 -8 1 -11 -2 -8 -7 4 -5 -9 -25 -28
-45 -18 -20 -31 -36 -29 -36 2 0 -2 -6 -9 -14 -7 -8 -24 -29 -38 -46 -14 -18
-32 -40 -40 -49 -8 -9 -39 -49 -69 -88 -30 -40 -58 -70 -63 -67 -4 3 -5 -2 -2
-10 4 -9 -1 -18 -10 -22 -9 -3 -16 -12 -16 -19 0 -16 -35 -47 -44 -38 -4 4 -4
0 0 -10 3 -10 1 -17 -5 -17 -6 0 -11 -6 -11 -14 0 -7 -12 -26 -28 -42 -15 -16
-29 -33 -31 -39 -2 -5 -7 -9 -12 -7 -5 1 -8 -1 -7 -6 5 -14 -64 -112 -75 -105
-5 3 -7 2 -4 -4 6 -9 -65 -122 -85 -134 -5 -3 -9 -9 -8 -13 3 -10 -43 -76 -53
-76 -5 0 -5 -4 -2 -10 3 -5 2 -10 -3 -10 -5 0 -12 -9 -15 -21 -3 -12 -10 -18
-17 -14 -6 3 -9 3 -8 -2 4 -14 -13 -53 -23 -53 -5 0 -9 -7 -9 -15 0 -8 -5 -15
-11 -15 -5 0 -7 -4 -4 -10 3 -5 2 -10 -2 -10 -5 0 -17 -17 -28 -37 -11 -21
-26 -44 -32 -51 -7 -7 -13 -18 -13 -23 0 -6 -4 -7 -10 -4 -5 3 -7 0 -4 -8 3
-8 -2 -20 -11 -27 -8 -7 -15 -16 -15 -21 0 -18 -64 -108 -73 -102 -6 3 -7 1
-3 -5 4 -7 -10 -40 -30 -74 -20 -35 -48 -83 -62 -108 -14 -25 -44 -79 -68
-121 -24 -42 -44 -80 -44 -86 0 -5 -9 -18 -20 -28 -10 -9 -19 -20 -18 -24 3
-15 -15 -40 -25 -34 -5 3 -7 1 -3 -5 8 -14 -83 -194 -95 -187 -5 4 -7 0 -4 -7
6 -18 -119 -270 -130 -261 -4 5 -5 3 -2 -4 4 -6 -11 -51 -34 -100 -22 -48 -46
-101 -54 -118 -7 -16 -24 -55 -38 -85 -13 -30 -27 -65 -31 -78 -4 -12 -12 -20
-17 -17 -5 3 -6 0 -4 -8 3 -7 -1 -27 -10 -43 -8 -16 -15 -35 -15 -42 0 -7 -7
-15 -15 -18 -8 -4 -13 -10 -10 -15 3 -4 -1 -24 -9 -44 -8 -19 -13 -35 -10 -35
2 0 -7 -20 -21 -45 -13 -25 -25 -47 -25 -50 -1 -8 -21 -66 -75 -213 -6 -18
-13 -30 -16 -28 -2 2 -5 -7 -5 -20 -1 -14 -10 -35 -20 -46 -11 -12 -13 -18 -6
-14 10 6 9 -1 -2 -28 -8 -20 -12 -36 -9 -36 3 0 1 -6 -4 -12 -11 -14 -133
-388 -133 -407 0 -6 -3 -11 -7 -11 -5 0 -9 -10 -10 -22 -4 -43 -15 -88 -22
-84 -3 2 -7 -10 -8 -27 -1 -17 -6 -33 -10 -36 -5 -3 -9 -17 -9 -31 -3 -47 -4
-51 -13 -46 -5 4 -7 -3 -4 -14 3 -12 0 -20 -6 -20 -7 0 -10 -4 -7 -9 7 -11
-15 -111 -24 -111 -3 0 -6 -8 -6 -17 -1 -21 -10 -62 -18 -83 -3 -8 -7 -26 -10
-40 -2 -14 -15 -72 -29 -130 -14 -58 -28 -122 -31 -144 -4 -21 -9 -42 -12 -47
-3 -6 -8 -26 -10 -47 -3 -20 -8 -46 -11 -57 -6 -18 -9 -33 -15 -82 -1 -7 -4
-13 -7 -13 -4 0 -6 -12 -6 -27 -1 -62 -17 -133 -28 -127 -9 5 -9 4 0 -6 8 -8
8 -21 1 -44 -11 -35 -14 -56 -24 -141 -3 -33 -9 -64 -12 -69 -2 -5 -7 -31 -9
-60 -3 -28 -9 -54 -15 -57 -7 -5 -7 -8 0 -13 7 -4 7 -17 1 -39 -5 -17 -9 -46
-9 -64 0 -17 -6 -34 -12 -36 -10 -4 -10 -6 0 -6 7 -1 10 -6 6 -12 -3 -6 -8
-39 -10 -73 -2 -33 -6 -71 -9 -82 -3 -12 -8 -57 -11 -100 -3 -44 -10 -84 -16
-91 -6 -7 -5 -14 2 -18 6 -3 8 -9 6 -13 -6 -11 -34 -391 -37 -522 -1 -34 -8
-62 -18 -73 -13 -15 -13 -18 -1 -15 21 5 21 -120 0 -146 -8 -11 -10 -16 -4
-13 14 8 27 -20 14 -28 -6 -3 -6 -15 0 -30 5 -14 6 -25 2 -25 -4 0 -6 -46 -4
-102 7 -290 7 -348 -3 -348 -6 0 -5 -4 1 -8 7 -4 12 -46 14 -107 2 -98 6 -168
13 -252 3 -27 0 -40 -6 -36 -6 4 -7 1 -1 -8 9 -15 16 -81 18 -166 1 -29 4 -53
8 -53 8 0 5 -21 -6 -39 -6 -10 -5 -12 2 -7 8 5 12 -5 13 -31 1 -21 2 -42 3
-48 3 -16 18 -153 21 -193 2 -21 7 -55 10 -77 3 -22 8 -56 10 -76 1 -20 5 -45
8 -55 3 -11 8 -43 11 -72 3 -29 8 -63 11 -75 4 -20 12 -77 21 -147 2 -14 6
-38 9 -55 14 -72 34 -173 40 -210 12 -67 14 -76 33 -155 5 -19 8 -45 7 -57 -1
-13 1 -23 5 -23 10 0 33 -128 24 -141 -4 -8 -3 -10 4 -5 7 4 12 1 13 -6 0 -7
3 -24 6 -38 3 -14 6 -34 7 -45 0 -11 4 -22 8 -25 3 -3 8 -19 11 -35 2 -17 7
-37 10 -45 6 -15 26 -90 32 -120 2 -8 13 -51 25 -95 12 -44 24 -91 27 -105 3
-14 10 -31 16 -37 6 -9 5 -13 -4 -13 -9 0 -10 -3 -4 -8 10 -6 32 -65 39 -102
2 -8 6 -23 11 -32 4 -10 8 -29 9 -42 0 -13 4 -22 8 -19 5 2 9 -5 9 -16 1 -12
2 -27 3 -33 1 -7 3 -15 6 -18 12 -12 31 -81 24 -91 -4 -7 -3 -9 4 -5 6 4 13
-7 17 -26 3 -18 10 -42 15 -53 9 -21 69 -193 73 -210 2 -5 5 -14 8 -20 5 -8
29 -75 34 -95 1 -3 9 -22 18 -42 10 -21 19 -45 21 -55 3 -16 11 -38 45 -118
12 -27 36 -89 37 -95 1 -8 22 -56 48 -113 54 -119 66 -147 66 -153 0 -3 19
-45 41 -93 23 -47 42 -92 42 -98 0 -7 4 -13 9 -13 4 0 8 -5 8 -11 0 -15 150
-322 200 -411 21 -37 41 -77 45 -90 4 -13 10 -25 14 -28 3 -3 16 -25 29 -50
12 -25 34 -65 49 -90 45 -77 52 -93 46 -104 -3 -6 -3 -8 2 -4 10 10 116 -172
108 -185 -4 -6 -1 -7 7 -2 10 6 12 4 7 -9 -4 -9 -3 -15 1 -12 5 3 33 -36 62
-87 30 -51 60 -98 67 -105 7 -8 11 -18 8 -23 -4 -5 -2 -9 2 -9 15 0 74 -100
67 -112 -4 -6 -3 -8 3 -5 9 6 43 -38 88 -114 13 -22 97 -144 153 -220 23 -33
42 -64 42 -69 0 -6 4 -10 9 -10 6 0 20 -18 32 -40 13 -22 26 -40 31 -40 4 0 8
-5 8 -11 0 -6 6 -16 13 -23 6 -8 19 -24 27 -36 8 -12 20 -28 25 -34 26 -30 75
-95 75 -100 0 -3 13 -19 30 -36 16 -17 30 -34 30 -38 0 -4 12 -21 27 -38 59
-66 73 -85 73 -99 0 -8 4 -14 9 -12 4 1 30 -25 56 -58 27 -33 65 -78 84 -101
20 -22 61 -69 91 -104 30 -35 61 -69 68 -76 6 -7 12 -15 12 -17 0 -3 17 -22
38 -44 20 -21 82 -87 137 -147 55 -60 112 -120 127 -134 15 -14 25 -30 21 -36
-3 -6 -3 -8 1 -4 10 8 47 -23 40 -34 -3 -5 -2 -7 3 -6 4 2 74 -62 155 -142 81
-80 189 -183 240 -230 51 -47 109 -101 130 -121 21 -20 38 -35 38 -32 0 2 17
-12 38 -31 45 -42 73 -67 131 -114 24 -21 49 -41 55 -47 19 -17 80 -68 126
-105 24 -19 54 -45 67 -57 13 -12 23 -20 23 -17 0 6 144 -109 148 -118 2 -5 8
-8 14 -8 5 0 16 -7 24 -15 9 -8 46 -36 82 -62 37 -26 76 -56 86 -65 11 -10 23
-18 26 -18 4 0 20 -11 36 -25 16 -14 33 -25 37 -25 5 0 5 -5 1 -12 -4 -6 -3
-8 3 -5 6 4 40 -15 75 -41 36 -26 72 -51 80 -57 9 -5 69 -46 134 -90 66 -44
124 -82 129 -84 6 -2 12 -7 15 -10 3 -3 14 -11 25 -18 11 -7 48 -29 82 -49 34
-21 59 -42 56 -47 -3 -6 -1 -7 5 -3 6 4 31 -6 54 -21 24 -15 54 -34 68 -42 63
-35 77 -43 105 -61 32 -20 45 -27 140 -80 33 -18 77 -44 97 -57 21 -13 42 -23
47 -23 5 0 16 -6 23 -12 7 -7 67 -40 131 -73 65 -32 121 -63 123 -67 3 -5 9
-6 14 -3 5 3 17 -2 27 -12 10 -10 23 -18 28 -18 6 0 68 -28 138 -63 70 -34
129 -62 131 -62 4 0 51 -21 211 -95 129 -59 492 -203 645 -256 47 -16 92 -32
100 -36 8 -3 20 -7 25 -9 6 -2 71 -23 144 -48 74 -25 138 -46 142 -46 4 0 20
-5 36 -12 35 -14 29 -12 85 -27 26 -8 45 -17 42 -22 -3 -5 2 -6 10 -3 8 3 47
-5 88 -17 40 -12 78 -23 83 -25 6 -1 55 -14 110 -29 55 -14 111 -28 124 -31
14 -3 29 -8 35 -11 6 -4 19 -8 31 -9 11 -1 70 -14 130 -29 210 -50 340 -79
405 -90 19 -3 79 -15 134 -25 54 -11 117 -22 140 -25 22 -3 66 -10 96 -15 30
-5 73 -12 95 -15 22 -4 51 -8 65 -10 14 -3 48 -7 75 -10 51 -6 91 -12 135 -20
14 -2 54 -7 90 -10 36 -3 76 -7 90 -10 31 -5 114 -14 200 -20 36 -3 92 -8 125
-11 140 -12 410 -27 458 -26 24 0 35 -3 31 -10 -4 -6 -3 -8 3 -5 6 4 199 8
429 11 230 3 451 7 489 9 39 3 115 8 170 11 55 4 111 9 125 11 14 2 65 7 114
10 49 3 103 8 120 10 33 4 86 10 181 21 96 10 321 41 367 49 13 3 43 8 68 11
25 3 54 8 65 10 11 2 34 7 50 9 251 45 321 57 326 60 3 2 21 7 40 10 19 3 41
8 49 10 8 2 26 6 40 9 40 7 247 55 355 83 55 14 105 26 110 27 107 26 347 96
540 158 172 55 551 186 600 208 11 5 67 28 125 51 152 59 349 144 468 200 57
27 106 49 108 49 21 0 627 312 657 338 9 8 17 13 17 9 0 -3 48 23 108 58 59
35 127 75 152 90 315 185 736 467 1005 675 33 26 80 62 105 81 144 109 374
299 455 374 11 11 37 33 56 49 164 136 514 476 746 724 65 70 132 141 148 158
17 18 50 56 74 84 25 29 50 58 56 64 6 6 38 43 70 81 32 39 61 72 65 75 32 28
413 523 512 665 306 441 512 775 729 1181 80 148 309 615 309 629 0 1 18 42
40 89 22 47 40 88 40 91 0 4 12 32 26 63 98 214 380 998 395 1097 1 6 6 21 11
35 10 27 85 298 114 410 6 25 25 104 30 122 2 10 6 28 10 40 3 13 7 34 10 48
2 14 7 32 10 40 4 12 52 236 70 325 2 11 6 31 9 45 13 70 61 350 70 410 3 25
8 56 10 70 2 14 6 45 10 70 3 25 8 56 10 70 3 14 7 43 9 65 3 22 10 85 16 140
6 55 13 116 15 135 3 19 7 64 10 100 3 36 8 92 11 125 3 33 7 85 9 115 1 30 7
125 11 210 10 181 10 949 0 1095 -4 55 -9 138 -11 185 -2 47 -5 85 -5 85 -2 0
-4 21 -15 150 -3 39 -7 86 -9 105 -3 19 -7 58 -10 85 -3 28 -8 75 -11 105 -3
30 -8 71 -11 90 -3 19 -7 51 -10 70 -8 62 -34 234 -39 260 -3 13 -7 42 -10 65
-6 38 -49 283 -59 335 -33 159 -48 230 -86 390 -18 74 -33 142 -35 150 -1 8
-7 33 -13 55 -21 72 -64 227 -66 239 -5 25 -69 234 -122 401 -39 120 -110 328
-123 360 -25 59 -51 129 -51 138 0 5 -12 37 -26 71 -14 33 -35 82 -45 109 -39
97 -136 326 -176 417 -37 83 -91 196 -174 364 -49 98 -86 184 -82 190 3 6 2 8
-2 3 -11 -9 -86 133 -78 146 3 6 2 7 -4 4 -6 -4 -19 13 -29 36 -10 23 -21 44
-24 47 -4 3 -28 45 -54 94 -27 48 -70 124 -97 168 -27 44 -49 81 -49 83 0 9
-195 315 -309 483 -31 46 -60 90 -66 99 -5 9 -18 26 -27 36 -10 11 -15 24 -12
29 3 4 1 8 -4 8 -5 0 -26 26 -48 57 -21 32 -44 65 -51 73 -7 8 -33 44 -60 80
-54 73 -56 76 -83 109 -11 13 -20 27 -20 30 0 3 -13 20 -28 38 -53 62 -77 97
-74 107 2 6 0 8 -3 4 -4 -4 -30 21 -57 55 -68 86 -77 97 -112 138 -17 20 -47
55 -66 79 -19 23 -45 52 -57 63 -13 11 -23 25 -23 31 0 6 -9 17 -20 24 -12 7
-18 18 -14 24 4 6 3 8 -3 5 -6 -4 -22 8 -36 26 -13 17 -39 47 -56 65 -18 18
-29 38 -25 44 4 6 3 8 -3 5 -6 -4 -57 44 -114 106 -57 61 -112 119 -121 128
-10 9 -14 19 -10 23 4 4 3 6 -3 4 -5 -1 -85 71 -177 162 -91 91 -181 178 -200
194 -18 16 -62 57 -98 90 -36 34 -99 90 -140 126 -41 36 -82 73 -91 82 -10 9
-29 24 -43 33 -14 10 -23 22 -19 28 3 5 1 7 -5 3 -6 -3 -20 6 -31 20 -12 15
-21 24 -21 20 0 -4 -7 0 -17 9 -9 9 -40 35 -70 57 -29 22 -53 44 -53 49 0 5
-4 9 -10 9 -18 0 -150 112 -143 123 3 6 1 7 -5 3 -11 -7 -112 61 -112 76 0 4
-6 8 -12 8 -7 0 -26 12 -43 26 -16 14 -56 44 -87 66 -32 23 -58 45 -58 50 0 5
-5 6 -10 3 -6 -3 -13 1 -16 9 -3 9 -12 16 -19 16 -7 0 -15 3 -17 8 -1 4 -46
36 -98 72 -52 35 -96 68 -98 72 -2 4 -9 8 -16 8 -7 0 -21 8 -32 18 -11 11 -24
21 -29 23 -6 2 -49 30 -97 62 -48 31 -92 57 -97 57 -5 0 -11 4 -13 8 -1 4 -25
20 -51 36 -34 20 -47 32 -43 43 6 13 4 14 -10 3 -10 -9 -18 -10 -22 -4 -6 9
-84 58 -148 92 -13 7 -24 17 -24 23 0 5 -3 8 -7 7 -14 -4 -113 55 -107 63 3 5
-1 6 -9 4 -7 -3 -24 3 -36 14 -13 12 -28 18 -32 15 -5 -3 -9 -2 -9 3 0 4 -10
13 -23 19 -77 36 -145 79 -140 87 3 6 1 7 -5 4 -15 -10 -43 3 -35 16 3 5 1 7
-5 3 -11 -6 -205 88 -197 96 3 3 -1 5 -8 5 -6 0 -64 25 -127 56 -63 30 -155
74 -205 97 -49 23 -115 54 -145 68 -30 14 -57 26 -60 26 -11 2 -145 60 -150
65 -3 3 -12 7 -20 9 -29 5 -70 24 -66 31 2 3 -7 7 -20 7 -34 2 -85 25 -79 34
3 5 0 12 -6 16 -8 4 -9 3 -5 -4 4 -7 3 -12 -3 -12 -14 0 -115 40 -121 48 -3 4
-9 7 -15 8 -30 2 -75 18 -75 25 0 5 -3 8 -7 8 -5 -1 -11 0 -15 1 -5 1 -11 3
-15 4 -5 1 -35 12 -68 25 -56 22 -78 28 -98 30 -5 1 -5 6 -1 13 4 7 3 8 -4 4
-16 -10 -93 15 -85 27 4 6 1 7 -6 3 -7 -5 -24 -3 -39 2 -15 6 -36 14 -47 18
-24 9 -22 8 -63 18 -19 4 -29 12 -26 18 4 7 2 8 -4 4 -6 -3 -64 10 -129 30
-111 34 -234 69 -277 79 -10 2 -35 10 -55 17 -20 7 -42 11 -50 9 -8 -1 -10 2
-5 10 4 7 3 10 -4 5 -6 -4 -57 5 -114 20 -57 14 -114 28 -128 31 -14 2 -37 10
-53 18 -15 7 -25 10 -22 6 2 -5 -13 -3 -35 2 -23 7 -36 15 -32 21 3 6 -1 5
-10 -1 -8 -7 -18 -10 -21 -7 -3 4 -23 10 -44 14 -21 5 -63 13 -93 20 -30 6
-68 14 -85 16 -16 3 -37 8 -45 11 -8 3 -28 7 -45 9 -16 1 -46 6 -65 9 -19 4
-48 9 -65 12 -16 3 -36 10 -44 16 -10 8 -13 8 -8 1 4 -7 -2 -10 -18 -6 -14 2
-23 8 -20 12 2 4 -7 5 -20 2 -14 -2 -31 1 -39 7 -10 8 -16 9 -21 1 -4 -7 -13
-6 -28 2 -12 6 -24 10 -27 9 -3 -1 -27 1 -55 5 -27 4 -59 8 -70 10 -48 6 -112
15 -130 19 -11 2 -35 4 -53 4 -24 1 -31 5 -26 14 6 9 5 9 -8 0 -8 -7 -17 -10
-21 -7 -8 8 -56 15 -101 14 -22 -1 -43 5 -47 12 -7 11 -9 11 -9 0 0 -7 -4 -11
-9 -7 -5 3 -34 7 -63 10 -50 4 -163 15 -218 20 -14 2 -47 3 -73 4 -36 1 -46 4
-41 14 6 9 4 9 -7 1 -8 -6 -27 -10 -44 -8 -33 4 -220 13 -363 18 -51 2 -95 6
-99 9 -3 4 -14 2 -24 -4 -11 -5 -19 -6 -19 -2 0 7 -176 8 -435 1 -55 -1 -105
1 -112 5 -6 4 -14 4 -17 -1z"/>
<path d="M9479 21923 c-13 -16 -12 -17 4 -4 16 13 21 21 13 21 -2 0 -10 -8
-17 -17z"/>
<path d="M13153 21925 c0 -8 4 -12 9 -9 5 3 6 10 3 15 -9 13 -12 11 -12 -6z"/>
<path d="M9435 21859 c-4 -6 -5 -12 -2 -15 2 -3 7 2 10 11 7 17 1 20 -8 4z"/>
<path d="M9069 21733 c-13 -16 -12 -17 4 -4 16 13 21 21 13 21 -2 0 -10 -8
-17 -17z"/>
<path d="M8316 21603 c-6 -14 -5 -15 5 -6 7 7 10 15 7 18 -3 3 -9 -2 -12 -12z"/>
<path d="M8336 21523 c-6 -14 -5 -15 5 -6 7 7 10 15 7 18 -3 3 -9 -2 -12 -12z"/>
<path d="M15029 21473 c-13 -16 -12 -17 4 -4 16 13 21 21 13 21 -2 0 -10 -8
-17 -17z"/>
<path d="M7630 21416 c0 -2 7 -7 16 -10 8 -3 12 -2 9 4 -6 10 -25 14 -25 6z"/>
<path d="M6959 21083 c-13 -16 -12 -17 4 -4 9 7 17 15 17 17 0 8 -8 3 -21 -13z"/>
<path d="M6719 21043 c-13 -16 -12 -17 4 -4 9 7 17 15 17 17 0 8 -8 3 -21 -13z"/>
<path d="M6785 21050 c-3 -6 1 -7 9 -4 18 7 21 14 7 14 -6 0 -13 -4 -16 -10z"/>
<path d="M6967 20989 c7 -7 15 -10 18 -7 3 3 -2 9 -12 12 -14 6 -15 5 -6 -5z"/>
<path d="M6707 20929 c7 -7 15 -10 18 -7 3 3 -2 9 -12 12 -14 6 -15 5 -6 -5z"/>
<path d="M6356 20852 c-3 -5 1 -9 9 -9 8 0 12 4 9 9 -3 4 -7 8 -9 8 -2 0 -6
-4 -9 -8z"/>
<path d="M5670 20306 c0 -2 8 -10 18 -17 15 -13 16 -12 3 4 -13 16 -21 21 -21
13z"/>
<path d="M5116 20048 c3 -5 10 -6 15 -3 13 9 11 12 -6 12 -8 0 -12 -4 -9 -9z"/>
<path d="M5229 19973 c-13 -16 -12 -17 4 -4 9 7 17 15 17 17 0 8 -8 3 -21 -13z"/>
<path d="M18270 19731 c0 -6 4 -13 10 -16 6 -3 7 1 4 9 -7 18 -14 21 -14 7z"/>
<path d="M4230 19371 c0 -6 4 -13 10 -16 6 -3 7 1 4 9 -7 18 -14 21 -14 7z"/>
<path d="M4066 19328 c3 -5 10 -6 15 -3 13 9 11 12 -6 12 -8 0 -12 -4 -9 -9z"/>
<path d="M3929 19173 c-13 -16 -12 -17 4 -4 9 7 17 15 17 17 0 8 -8 3 -21 -13z"/>
<path d="M3955 19131 c-3 -5 -2 -12 3 -15 5 -3 9 1 9 9 0 17 -3 19 -12 6z"/>
<path d="M3749 19053 c-13 -16 -12 -17 4 -4 9 7 17 15 17 17 0 8 -8 3 -21 -13z"/>
<path d="M3790 19026 c0 -2 8 -10 18 -17 15 -13 16 -12 3 4 -13 16 -21 21 -21
13z"/>
<path d="M3595 18581 c-3 -5 -2 -12 3 -15 5 -3 9 1 9 9 0 17 -3 19 -12 6z"/>
<path d="M3019 18203 c-13 -16 -12 -17 4 -4 9 7 17 15 17 17 0 8 -8 3 -21 -13z"/>
<path d="M2430 17611 c0 -6 4 -13 10 -16 6 -3 7 1 4 9 -7 18 -14 21 -14 7z"/>
<path d="M2633 17365 c0 -8 4 -12 9 -9 5 3 6 10 3 15 -9 13 -12 11 -12 -6z"/>
<path d="M2080 16730 c-9 -6 -10 -10 -3 -10 6 0 15 5 18 10 8 12 4 12 -15 0z"/>
<path d="M2113 16535 c0 -8 4 -12 9 -9 5 3 6 10 3 15 -9 13 -12 11 -12 -6z"/>
<path d="M1620 15896 c0 -2 8 -10 18 -17 15 -13 16 -12 3 4 -13 16 -21 21 -21
13z"/>
<path d="M1755 15850 c3 -5 8 -10 11 -10 2 0 4 5 4 10 0 6 -5 10 -11 10 -5 0
-7 -4 -4 -10z"/>
<path d="M1560 15770 c-9 -6 -10 -10 -3 -10 6 0 15 5 18 10 8 12 4 12 -15 0z"/>
<path d="M1276 15043 c-6 -14 -5 -15 5 -6 7 7 10 15 7 18 -3 3 -9 -2 -12 -12z"/>
<path d="M1195 14619 c-4 -6 -5 -12 -2 -15 2 -3 7 2 10 11 7 17 1 20 -8 4z"/>
<path d="M1080 14530 c-9 -6 -10 -10 -3 -10 6 0 15 5 18 10 8 12 4 12 -15 0z"/>
<path d="M816 13723 c-6 -14 -5 -15 5 -6 7 7 10 15 7 18 -3 3 -9 -2 -12 -12z"/>
<path d="M795 13559 c-4 -6 -5 -12 -2 -15 2 -3 7 2 10 11 7 17 1 20 -8 4z"/>
<path d="M756 13252 c-3 -5 1 -9 9 -9 8 0 12 4 9 9 -3 4 -7 8 -9 8 -2 0 -6 -4
-9 -8z"/>
<path d="M674 12459 c-3 -6 -2 -15 3 -20 5 -5 9 -1 9 11 0 23 -2 24 -12 9z"/>
<path d="M555 11141 c-3 -5 -2 -12 3 -15 5 -3 9 1 9 9 0 17 -3 19 -12 6z"/>
<path d="M633 10765 c0 -8 4 -12 9 -9 5 3 6 10 3 15 -9 13 -12 11 -12 -6z"/>
<path d="M620 10476 c0 -2 8 -10 18 -17 15 -13 16 -12 3 4 -13 16 -21 21 -21
13z"/>
<path d="M706 10088 c3 -5 10 -6 15 -3 13 9 11 12 -6 12 -8 0 -12 -4 -9 -9z"/>
<path d="M710 9689 c0 -5 5 -7 10 -4 6 3 10 8 10 11 0 2 -4 4 -10 4 -5 0 -10
-5 -10 -11z"/>
<path d="M919 8843 c-13 -16 -12 -17 4 -4 16 13 21 21 13 21 -2 0 -10 -8 -17
-17z"/>
<path d="M1156 7928 c3 -5 10 -6 15 -3 13 9 11 12 -6 12 -8 0 -12 -4 -9 -9z"/>
<path d="M1070 7776 c0 -2 7 -7 16 -10 8 -3 12 -2 9 4 -6 10 -25 14 -25 6z"/>
</g>
</svg>
